<svg width="238" height="37" viewBox="0 0 238 37" fill="none" xmlns="http://www.w3.org/2000/svg">
<g clip-path="url(#clip0_1_244)">
<path d="M59.0476 35.1645C56.9215 34.2417 54.9877 32.9287 53.3466 31.2937C51.7056 29.655 50.386 27.7244 49.4558 25.6014C48.5125 23.3775 48.0277 20.9865 48.0305 18.5714C48.0277 16.1608 48.5125 13.7745 49.4558 11.5556C50.3842 9.43159 51.704 7.50065 53.3466 5.86331C54.9802 4.22291 56.9161 2.91333 59.0476 2.00674C61.2681 1.05918 63.6591 0.574903 66.0739 0.583659C68.4888 0.573294 70.8803 1.05763 73.1004 2.00674C75.2293 2.91801 77.1643 4.22701 78.8013 5.86331C80.4369 7.49749 81.7431 9.42987 82.6494 11.5556C83.5984 13.7728 84.0834 16.1602 84.0746 18.5714C84.0837 20.9871 83.5987 23.3793 82.6494 25.6014C81.7397 27.7253 80.4339 29.657 78.8013 31.2937C77.1575 32.9253 75.2244 34.2379 73.1004 35.1645C70.8784 36.1074 68.4882 36.5915 66.0739 36.5875C63.6597 36.5903 61.2699 36.1063 59.0476 35.1645Z" fill="white"/>
<path d="M119.435 19.9086C121.983 19.8873 124.42 18.8648 126.219 17.0625C127.153 16.1616 127.889 15.0763 128.38 13.8757C128.87 12.6751 129.105 11.3856 129.069 10.0894C129.077 7.47229 128.053 4.9572 126.219 3.08784C125.344 2.15561 124.293 1.4063 123.126 0.88348C121.959 0.360662 120.699 0.0747911 119.421 0.0424805H106.465C106.223 0.0424805 106.964 0.697059 106.964 0.938982V36.2598C106.964 36.5017 106.223 37.0425 106.465 37.0425H127.986C128.114 37.0425 128.214 36.7721 128.285 36.6582C128.32 36.59 128.339 36.5143 128.339 36.4376C128.339 36.3609 128.32 36.2853 128.285 36.2171L119.435 19.9086Z" fill="white"/>
<path d="M161.037 35.1644C158.913 34.239 156.979 32.9263 155.336 31.2936C153.695 29.655 152.376 27.7244 151.446 25.6013C150.502 23.3774 150.017 20.9865 150.02 18.5713C150.017 16.1608 150.502 13.7745 151.446 11.5556C152.374 9.43155 153.694 7.50062 155.336 5.86327C156.972 4.22589 158.908 2.91673 161.037 2.0067C163.258 1.05914 165.649 0.574866 168.064 0.583622C170.483 0.574528 172.879 1.05878 175.104 2.0067C177.234 2.91673 179.169 4.22589 180.805 5.86327C182.446 7.49357 183.753 9.42692 184.654 11.5556C185.61 13.7705 186.095 16.1595 186.079 18.5713C186.095 20.9878 185.61 23.3814 184.654 25.6013C183.749 27.7281 182.443 29.6608 180.805 31.2936C179.162 32.9263 177.229 34.239 175.104 35.1644C172.877 36.1063 170.483 36.5903 168.064 36.5875C165.65 36.5903 163.26 36.1063 161.037 35.1644Z" fill="white"/>
<path d="M14.7085 36.7439H0V0.782715H14.6657C21.6066 0.782715 26.1816 4.625 26.1816 10.2319C26.1717 11.8767 25.6863 13.4836 24.7836 14.8594C23.881 16.2353 22.5997 17.3216 21.0935 17.9877C22.9126 18.612 24.4955 19.7797 25.6274 21.3326C26.7594 22.8854 27.3856 24.7482 27.4215 26.6685C27.4215 32.6739 22.3763 36.7439 14.7085 36.7439Z" fill="white"/>
<path d="M9.22119 30.1975H13.2405C16.0909 30.1975 17.73 28.6179 17.73 26.526C17.73 24.434 16.0054 22.8544 13.4543 22.8544H9.47781V9.77637H13.5254" stroke="black" stroke-width="0.25" stroke-miterlimit="10"/>
<path d="M237.06 10.3886C236.402 8.40372 235.295 6.59701 233.824 5.10903C232.359 3.60061 230.571 2.44274 228.594 1.7221C227.071 1.15235 225.459 0.858364 223.833 0.854004C222.189 0.858551 220.558 1.15243 219.016 1.7221C217.026 2.44188 215.224 3.59944 213.743 5.10903C212.272 6.59701 211.165 8.40372 210.507 10.3886C209.082 14.5156 209.652 19.0125 209.652 23.296V35.5771C209.652 35.8048 209.652 36.4167 209.852 36.559C210.051 36.7013 210.179 37.0002 210.35 37.0002H237.259C237.43 37.0002 237.601 36.6728 237.744 36.559C237.886 36.4452 237.929 35.9756 237.929 35.7336C237.929 31.6494 237.929 27.4656 237.929 23.3813C237.929 19.2971 238.413 14.5156 237.06 10.3886Z" fill="white"/>
</g>
<defs>
<clipPath id="clip0_1_244">
<rect width="238" height="37" fill="white"/>
</clipPath>
</defs>
</svg>
